<svg xmlns="http://www.w3.org/2000/svg" xmlns:xlink="http://www.w3.org/1999/xlink" width="80" zoomAndPan="magnify" viewBox="0 0 60 60" height="80" preserveAspectRatio="xMidYMid meet" version="1.2"><defs><clipPath id="5bb61b8b07"><path d="M 0.113281 0.0390625 L 59.886719 0.0390625 L 59.886719 59.960938 L 0.113281 59.960938 Z M 0.113281 0.0390625 "/></clipPath></defs><g id="fe63f6c1d3"><g clip-rule="nonzero" clip-path="url(#5bb61b8b07)"><path style=" stroke:none;fill-rule:nonzero;fill:#2c3927;fill-opacity:1;" d="M 51.0625 31.773438 C 51.085938 31.183594 51.097656 30.59375 51.097656 30 C 51.097656 25.773438 50.488281 21.683594 49.328125 17.929688 L 56.207031 17.929688 C 57.902344 21.605469 58.855469 25.691406 58.855469 30 C 58.855469 30.59375 58.835938 31.183594 58.800781 31.773438 Z M 53.6875 46.457031 L 47.644531 46.457031 C 49.558594 42.328125 50.71875 37.597656 51.019531 32.617188 L 58.734375 32.617188 C 58.273438 37.726562 56.472656 42.460938 53.6875 46.457031 Z M 38.082031 57.699219 C 40.628906 56.203125 42.964844 53.988281 44.964844 51.128906 C 45.804688 49.933594 46.5625 48.648438 47.234375 47.300781 L 53.078125 47.300781 C 49.375 52.222656 44.136719 55.929688 38.082031 57.699219 Z M 32.648438 58.734375 C 34.128906 57.3125 35.46875 54.6875 36.550781 51.007812 C 36.894531 49.84375 37.203125 48.605469 37.476562 47.300781 L 46.28125 47.300781 C 43.304688 53.070312 38.882812 57.210938 33.792969 58.601562 C 33.414062 58.652344 33.03125 58.695312 32.648438 58.734375 Z M 31.113281 58.828125 C 30.742188 58.84375 30.371094 58.851562 30 58.851562 C 29.628906 58.851562 29.257812 58.84375 28.886719 58.828125 C 27.183594 57.960938 25.542969 55.128906 24.257812 50.765625 C 23.9375 49.679688 23.644531 48.519531 23.382812 47.300781 L 36.617188 47.300781 C 36.351562 48.519531 36.0625 49.679688 35.742188 50.765625 C 34.457031 55.128906 32.816406 57.960938 31.113281 58.828125 Z M 26.207031 58.601562 C 21.117188 57.210938 16.695312 53.070312 13.71875 47.300781 L 22.519531 47.300781 C 22.796875 48.605469 23.105469 49.84375 23.449219 51.007812 C 24.53125 54.6875 25.871094 57.3125 27.351562 58.734375 C 26.96875 58.695312 26.585938 58.652344 26.207031 58.601562 Z M 6.921875 47.300781 L 12.761719 47.300781 C 13.4375 48.648438 14.195312 49.933594 15.03125 51.128906 C 17.035156 53.988281 19.371094 56.203125 21.917969 57.699219 C 15.863281 55.929688 10.625 52.222656 6.921875 47.300781 Z M 1.265625 32.617188 L 8.980469 32.617188 C 9.28125 37.597656 10.441406 42.328125 12.355469 46.457031 L 6.3125 46.457031 C 3.527344 42.460938 1.726562 37.726562 1.265625 32.617188 Z M 1.144531 30 C 1.144531 25.691406 2.09375 21.605469 3.792969 17.929688 L 10.671875 17.929688 C 9.511719 21.683594 8.898438 25.773438 8.898438 30 C 8.898438 30.59375 8.914062 31.183594 8.9375 31.773438 L 1.199219 31.773438 C 1.164062 31.183594 1.144531 30.59375 1.144531 30 Z M 21.929688 2.292969 C 19.378906 3.789062 17.039062 6.007812 15.03125 8.867188 C 13.328125 11.300781 11.957031 14.078125 10.945312 17.085938 L 4.199219 17.085938 C 7.769531 9.988281 14.179688 4.554688 21.929688 2.292969 Z M 27.351562 1.265625 C 25.867188 2.6875 24.53125 5.3125 23.449219 8.992188 C 22.742188 11.390625 22.171875 14.125 21.75 17.085938 L 11.847656 17.085938 C 14.625 9.050781 19.910156 3.113281 26.21875 1.390625 C 26.59375 1.34375 26.972656 1.300781 27.351562 1.265625 Z M 28.890625 1.167969 C 29.257812 1.152344 29.628906 1.144531 30 1.144531 C 30.371094 1.144531 30.742188 1.152344 31.109375 1.167969 C 32.8125 2.035156 34.457031 4.867188 35.742188 9.230469 C 36.425781 11.558594 36.980469 14.210938 37.394531 17.085938 L 22.601562 17.085938 C 23.015625 14.210938 23.574219 11.558594 24.257812 9.230469 C 25.542969 4.867188 27.1875 2.035156 28.890625 1.167969 Z M 33.78125 1.390625 C 40.089844 3.113281 45.375 9.050781 48.152344 17.085938 L 38.25 17.085938 C 37.828125 14.125 37.257812 11.390625 36.550781 8.992188 C 35.46875 5.3125 34.128906 2.6875 32.648438 1.265625 C 33.027344 1.300781 33.40625 1.34375 33.78125 1.390625 Z M 39.097656 31.773438 C 39.109375 31.183594 39.113281 30.59375 39.113281 30 C 39.113281 25.773438 38.855469 21.679688 38.363281 17.929688 L 48.429688 17.929688 C 49.601562 21.609375 50.253906 25.695312 50.253906 30 C 50.253906 30.59375 50.242188 31.183594 50.21875 31.773438 Z M 39.082031 32.617188 L 50.171875 32.617188 C 49.855469 37.71875 48.617188 42.449219 46.699219 46.457031 L 37.652344 46.457031 C 38.464844 42.335938 38.953125 37.601562 39.082031 32.617188 Z M 21.761719 32.617188 L 38.238281 32.617188 C 38.109375 37.613281 37.613281 42.351562 36.789062 46.457031 L 23.207031 46.457031 C 22.386719 42.351562 21.890625 37.613281 21.761719 32.617188 Z M 21.730469 30 C 21.730469 25.765625 21.988281 21.671875 22.488281 17.929688 L 37.511719 17.929688 C 38.007812 21.671875 38.269531 25.765625 38.269531 30 C 38.269531 30.59375 38.265625 31.183594 38.253906 31.773438 L 21.746094 31.773438 C 21.734375 31.183594 21.730469 30.59375 21.730469 30 Z M 20.917969 32.617188 C 21.046875 37.601562 21.535156 42.335938 22.347656 46.457031 L 13.300781 46.457031 C 11.382812 42.449219 10.144531 37.71875 9.824219 32.617188 Z M 20.902344 31.773438 L 9.78125 31.773438 C 9.757812 31.183594 9.742188 30.59375 9.742188 30 C 9.742188 25.695312 10.398438 21.609375 11.570312 17.929688 L 21.636719 17.929688 C 21.144531 21.679688 20.886719 25.773438 20.886719 30 C 20.886719 30.59375 20.890625 31.183594 20.902344 31.773438 Z M 55.796875 17.085938 L 49.050781 17.085938 C 48.039062 14.078125 46.667969 11.300781 44.964844 8.867188 C 42.960938 6.007812 40.621094 3.789062 38.070312 2.292969 C 45.820312 4.554688 52.230469 9.988281 55.796875 17.085938 Z M 57.347656 17.90625 C 57.226562 17.632812 57.097656 17.359375 56.96875 17.085938 C 55.523438 14.074219 53.566406 11.296875 51.132812 8.867188 C 45.992188 3.726562 39.3125 0.691406 32.128906 0.1875 C 31.425781 0.0898438 30.714844 0.0390625 30 0.0390625 C 29.285156 0.0390625 28.570312 0.0898438 27.867188 0.1875 C 20.6875 0.691406 14.003906 3.726562 8.867188 8.867188 C 6.433594 11.296875 4.472656 14.074219 3.03125 17.085938 C 2.898438 17.359375 2.773438 17.632812 2.652344 17.90625 C 0.988281 21.664062 0.113281 25.765625 0.113281 30 C 0.113281 36.003906 1.871094 41.734375 5.144531 46.609375 C 5.300781 46.84375 5.460938 47.074219 5.621094 47.300781 C 6.585938 48.652344 7.667969 49.933594 8.867188 51.132812 C 14.003906 56.273438 20.6875 59.308594 27.871094 59.8125 C 28.574219 59.910156 29.285156 59.960938 30 59.960938 C 30.714844 59.960938 31.425781 59.910156 32.128906 59.8125 C 39.3125 59.308594 45.992188 56.273438 51.132812 51.132812 C 52.332031 49.933594 53.414062 48.652344 54.375 47.300781 C 54.539062 47.074219 54.699219 46.84375 54.855469 46.609375 C 58.128906 41.734375 59.886719 36.003906 59.886719 30 C 59.886719 25.765625 59.011719 21.664062 57.347656 17.90625 "/></g></g></svg>